<svg xmlns="http://www.w3.org/2000/svg" xmlns:xlink="http://www.w3.org/1999/xlink" width="406pt" height="458pt" viewBox="0.00 0.00 406.00 458.00">
<g id="graph0" class="graph" transform="scale(1 1) rotate(0) translate(4 454.2)">
<title>model</title>
<polygon fill="white" stroke="none" points="-4,4 -4,-454.2 402,-454.2 402,4 -4,4"/>
<g id="clust1" class="cluster">
<title>cluster_text</title>
<path fill="none" stroke="#a0aec0" d="M20,-102C20,-102 172,-102 172,-102 178,-102 184,-108 184,-114 184,-114 184,-420.2 184,-420.2 184,-426.2 178,-432.2 172,-432.2 172,-432.2 20,-432.2 20,-432.2 14,-432.2 8,-426.2 8,-420.2 8,-420.2 8,-114 8,-114 8,-108 14,-102 20,-102"/>
<text xml:space="preserve" text-anchor="middle" x="96" y="-418.3" font-family="Helvetica,sans-Serif" font-weight="bold" font-size="11.00">Text Branch (Conv1D Processing)</text>
</g>
<g id="clust2" class="cluster">
<title>cluster_struct</title>
<path fill="none" stroke="#a0aec0" d="M206,-274.4C206,-274.4 378,-274.4 378,-274.4 384,-274.4 390,-280.4 390,-286.4 390,-286.4 390,-430.2 390,-430.2 390,-436.2 384,-442.2 378,-442.2 378,-442.2 206,-442.2 206,-442.2 200,-442.2 194,-436.2 194,-430.2 194,-430.2 194,-286.4 194,-286.4 194,-280.4 200,-274.4 206,-274.4"/>
<text xml:space="preserve" text-anchor="middle" x="292" y="-428.3" font-family="Helvetica,sans-Serif" font-weight="bold" font-size="11.00">Structured Branch (Fully Connected)</text>
</g>
<!-- conv1 -->
<g id="node1" class="node">
<title>conv1</title>
<path fill="#f9fafb" stroke="#555555" d="M154.8,-391C154.8,-391 37.2,-391 37.2,-391 32.4,-391 27.6,-386.2 27.6,-381.4 27.6,-381.4 27.6,-371.8 27.6,-371.8 27.6,-367 32.4,-362.2 37.2,-362.2 37.2,-362.2 154.8,-362.2 154.8,-362.2 159.6,-362.2 164.4,-367 164.4,-371.8 164.4,-371.8 164.4,-381.4 164.4,-381.4 164.4,-386.2 159.6,-391 154.8,-391"/>
<text xml:space="preserve" text-anchor="middle" x="96" y="-373.6" font-family="Helvetica,sans-Serif" font-size="10.00">Conv1D (1→64, k=5)</text>
</g>
<!-- pool1 -->
<g id="node2" class="node">
<title>pool1</title>
<path fill="#f9fafb" stroke="#555555" d="M154.8,-333.2C154.8,-333.2 37.2,-333.2 37.2,-333.2 32.4,-333.2 27.6,-328.4 27.6,-323.6 27.6,-323.6 27.6,-314 27.6,-314 27.6,-309.2 32.4,-304.4 37.2,-304.4 37.2,-304.4 154.8,-304.4 154.8,-304.4 159.6,-304.4 164.4,-309.2 164.4,-314 164.4,-314 164.4,-323.6 164.4,-323.6 164.4,-328.4 159.6,-333.2 154.8,-333.2"/>
<text xml:space="preserve" text-anchor="middle" x="96" y="-315.8" font-family="Helvetica,sans-Serif" font-size="10.00">MaxPool</text>
</g>
<!-- conv1&#45;&gt;pool1 -->
<g id="edge1" class="edge">
<title>conv1-&gt;pool1</title>
<path fill="none" stroke="#666666" d="M96,-361.81C96,-355.73 96,-348.43 96,-341.64"/>
<polygon fill="#666666" stroke="#666666" points="98.45,-341.95 96,-334.95 93.55,-341.95 98.45,-341.95"/>
</g>
<!-- conv2 -->
<g id="node3" class="node">
<title>conv2</title>
<path fill="#f9fafb" stroke="#555555" d="M154.8,-266.4C154.8,-266.4 37.2,-266.4 37.2,-266.4 32.4,-266.4 27.6,-261.6 27.6,-256.8 27.6,-256.8 27.6,-247.2 27.6,-247.2 27.6,-242.4 32.4,-237.6 37.2,-237.6 37.2,-237.6 154.8,-237.6 154.8,-237.6 159.6,-237.6 164.4,-242.4 164.4,-247.2 164.4,-247.2 164.4,-256.8 164.4,-256.8 164.4,-261.6 159.6,-266.4 154.8,-266.4"/>
<text xml:space="preserve" text-anchor="middle" x="96" y="-249" font-family="Helvetica,sans-Serif" font-size="10.00">Conv1D (64→32)</text>
</g>
<!-- pool1&#45;&gt;conv2 -->
<g id="edge2" class="edge">
<title>pool1-&gt;conv2</title>
<path fill="none" stroke="#666666" d="M96,-304.06C96,-295.64 96,-284.67 96,-275.06"/>
<polygon fill="#666666" stroke="#666666" points="98.45,-275.24 96,-268.24 93.55,-275.24 98.45,-275.24"/>
</g>
<!-- pool2 -->
<g id="node4" class="node">
<title>pool2</title>
<path fill="#f9fafb" stroke="#555555" d="M154.8,-208.6C154.8,-208.6 37.2,-208.6 37.2,-208.6 32.4,-208.6 27.6,-203.8 27.6,-199 27.6,-199 27.6,-189.4 27.6,-189.4 27.6,-184.6 32.4,-179.8 37.2,-179.8 37.2,-179.8 154.8,-179.8 154.8,-179.8 159.6,-179.8 164.4,-184.6 164.4,-189.4 164.4,-189.4 164.4,-199 164.4,-199 164.4,-203.8 159.6,-208.6 154.8,-208.6"/>
<text xml:space="preserve" text-anchor="middle" x="96" y="-191.2" font-family="Helvetica,sans-Serif" font-size="10.00">MaxPool</text>
</g>
<!-- conv2&#45;&gt;pool2 -->
<g id="edge3" class="edge">
<title>conv2-&gt;pool2</title>
<path fill="none" stroke="#666666" d="M96,-237.21C96,-231.13 96,-223.83 96,-217.04"/>
<polygon fill="#666666" stroke="#666666" points="98.45,-217.35 96,-210.35 93.55,-217.35 98.45,-217.35"/>
</g>
<!-- flatten -->
<g id="node5" class="node">
<title>flatten</title>
<path fill="#f9fafb" stroke="#555555" d="M154.8,-150.8C154.8,-150.8 37.2,-150.8 37.2,-150.8 32.4,-150.8 27.6,-146 27.6,-141.2 27.6,-141.2 27.6,-131.6 27.6,-131.6 27.6,-126.8 32.4,-122 37.2,-122 37.2,-122 154.8,-122 154.8,-122 159.6,-122 164.4,-126.8 164.4,-131.6 164.4,-131.6 164.4,-141.2 164.4,-141.2 164.4,-146 159.6,-150.8 154.8,-150.8"/>
<text xml:space="preserve" text-anchor="middle" x="96" y="-133.4" font-family="Helvetica,sans-Serif" font-size="10.00">Flatten (12,288 features)</text>
</g>
<!-- pool2&#45;&gt;flatten -->
<g id="edge4" class="edge">
<title>pool2-&gt;flatten</title>
<path fill="none" stroke="#666666" d="M96,-179.41C96,-173.33 96,-166.03 96,-159.24"/>
<polygon fill="#666666" stroke="#666666" points="98.45,-159.55 96,-152.55 93.55,-159.55 98.45,-159.55"/>
</g>
<!-- concat -->
<g id="node8" class="node">
<title>concat</title>
<path fill="#edf2f7" stroke="#555555" stroke-width="2" d="M153.73,-93C153.73,-93 38.27,-93 38.27,-93 32.93,-93 27.6,-87.67 27.6,-82.33 27.6,-82.33 27.6,-71.67 27.6,-71.67 27.6,-66.33 32.93,-61 38.27,-61 38.27,-61 153.73,-61 153.73,-61 159.07,-61 164.4,-66.33 164.4,-71.67 164.4,-71.67 164.4,-82.33 164.4,-82.33 164.4,-87.67 159.07,-93 153.73,-93"/>
<text xml:space="preserve" text-anchor="middle" x="96" y="-80" font-family="Helvetica,sans-Serif" font-size="10.00">Concatenate</text>
<text xml:space="preserve" text-anchor="middle" x="96" y="-68" font-family="Helvetica,sans-Serif" font-size="10.00">(12,288 + 16 features)</text>
</g>
<!-- flatten&#45;&gt;concat -->
<g id="edge6" class="edge">
<title>flatten-&gt;concat</title>
<path fill="none" stroke="#666666" d="M96,-121.51C96,-115.53 96,-108.38 96,-101.62"/>
<polygon fill="#666666" stroke="#666666" points="98.45,-101.9 96,-94.9 93.55,-101.9 98.45,-101.9"/>
</g>
<!-- fc1 -->
<g id="node6" class="node">
<title>fc1</title>
<path fill="#f9fafb" stroke="#555555" d="M350.8,-391C350.8,-391 233.2,-391 233.2,-391 228.4,-391 223.6,-386.2 223.6,-381.4 223.6,-381.4 223.6,-371.8 223.6,-371.8 223.6,-367 228.4,-362.2 233.2,-362.2 233.2,-362.2 350.8,-362.2 350.8,-362.2 355.6,-362.2 360.4,-367 360.4,-371.8 360.4,-371.8 360.4,-381.4 360.4,-381.4 360.4,-386.2 355.6,-391 350.8,-391"/>
<text xml:space="preserve" text-anchor="middle" x="292" y="-373.6" font-family="Helvetica,sans-Serif" font-size="10.00">Linear →16 (ReLU)</text>
</g>
<!-- fc2 -->
<g id="node7" class="node">
<title>fc2</title>
<path fill="#f9fafb" stroke="#555555" d="M350.8,-333.2C350.8,-333.2 233.2,-333.2 233.2,-333.2 228.4,-333.2 223.6,-328.4 223.6,-323.6 223.6,-323.6 223.6,-314 223.6,-314 223.6,-309.2 228.4,-304.4 233.2,-304.4 233.2,-304.4 350.8,-304.4 350.8,-304.4 355.6,-304.4 360.4,-309.2 360.4,-314 360.4,-314 360.4,-323.6 360.4,-323.6 360.4,-328.4 355.6,-333.2 350.8,-333.2"/>
<text xml:space="preserve" text-anchor="middle" x="292" y="-315.8" font-family="Helvetica,sans-Serif" font-size="10.00">Linear 16→16</text>
</g>
<!-- fc1&#45;&gt;fc2 -->
<g id="edge5" class="edge">
<title>fc1-&gt;fc2</title>
<path fill="none" stroke="#666666" d="M292,-361.81C292,-355.73 292,-348.43 292,-341.64"/>
<polygon fill="#666666" stroke="#666666" points="294.45,-341.95 292,-334.95 289.55,-341.95 294.45,-341.95"/>
</g>
<!-- fc2&#45;&gt;concat -->
<g id="edge7" class="edge">
<title>fc2-&gt;concat</title>
<path fill="none" stroke="#666666" d="M289.58,-303.95C282.12,-265.57 255.81,-157.03 189,-102 184.02,-97.9 178.43,-94.49 172.51,-91.66"/>
<polygon fill="#666666" stroke="#666666" points="173.66,-89.49 166.26,-88.97 171.72,-93.99 173.66,-89.49"/>
</g>
<!-- classifier -->
<g id="node9" class="node">
<title>classifier</title>
<path fill="#d1fae5" stroke="#555555" d="M153.73,-32C153.73,-32 38.27,-32 38.27,-32 32.93,-32 27.6,-26.67 27.6,-21.33 27.6,-21.33 27.6,-10.67 27.6,-10.67 27.6,-5.33 32.93,0 38.27,0 38.27,0 153.73,0 153.73,0 159.07,0 164.4,-5.33 164.4,-10.67 164.4,-10.67 164.4,-21.33 164.4,-21.33 164.4,-26.67 159.07,-32 153.73,-32"/>
<text xml:space="preserve" text-anchor="middle" x="96" y="-19" font-family="Helvetica,sans-Serif" font-size="10.00">Linear →5</text>
<text xml:space="preserve" text-anchor="middle" x="96" y="-7" font-family="Helvetica,sans-Serif" font-size="10.00">(Softmax output)</text>
</g>
<!-- concat&#45;&gt;classifier -->
<g id="edge8" class="edge">
<title>concat-&gt;classifier</title>
<path fill="none" stroke="#666666" d="M96,-60.81C96,-54.66 96,-47.42 96,-40.62"/>
<polygon fill="#666666" stroke="#666666" points="98.45,-40.86 96,-33.86 93.55,-40.86 98.45,-40.86"/>
</g>
</g>
</svg>